<svg width="16" height="16" viewBox="0 0 16 16" fill="none" xmlns="http://www.w3.org/2000/svg">
    <rect width="16" height="16" rx="8" fill="white"/>
    <path fill-rule="evenodd" clip-rule="evenodd" d="M8.00001 1.91669C6.91704 1.91669 5.87843 2.34689 5.11265 3.11267C4.34688 3.87844 3.91667 4.91705 3.91667 6.00002C3.91667 7.08299 4.34688 8.1216 5.11265 8.88737C5.69924 9.47396 6.44592 9.86365 7.25 10.0139V11.25H6C5.58579 11.25 5.25 11.5858 5.25 12C5.25 12.4142 5.58579 12.75 6 12.75H7.25V14C7.25 14.4142 7.58579 14.75 8 14.75C8.41421 14.75 8.75 14.4142 8.75 14V12.75H10C10.4142 12.75 10.75 12.4142 10.75 12C10.75 11.5858 10.4142 11.25 10 11.25H8.75V10.0139C9.55408 9.86365 10.3008 9.47396 10.8874 8.88737C11.6531 8.1216 12.0833 7.08299 12.0833 6.00002C12.0833 4.91705 11.6531 3.87844 10.8874 3.11267C10.1216 2.34689 9.08297 1.91669 8.00001 1.91669ZM7.99648 8.58335C7.31261 8.58242 6.65695 8.31035 6.17331 7.82671C5.68884 7.34224 5.41667 6.68516 5.41667 6.00002C5.41667 5.31488 5.68884 4.6578 6.17331 4.17333C6.65778 3.68886 7.31486 3.41669 8.00001 3.41669C8.68515 3.41669 9.34223 3.68886 9.8267 4.17333C10.3112 4.6578 10.5833 5.31488 10.5833 6.00002C10.5833 6.68516 10.3112 7.34224 9.8267 7.82671C9.34223 8.31118 8.68515 8.58335 8.00001 8.58335L7.99648 8.58335Z" fill="#D900C3"/>
</svg>
