<svg width="16" height="16" viewBox="0 0 16 16" fill="none" xmlns="http://www.w3.org/2000/svg">
    <rect width="16" height="16" rx="8" fill="white"/>
    <path fill-rule="evenodd" clip-rule="evenodd" d="M13.3571 3.03977C13.3954 3.12993 13.4167 3.22914 13.4167 3.33331V6.66665C13.4167 7.08086 13.0809 7.41665 12.6667 7.41665C12.2525 7.41665 11.9167 7.08086 11.9167 6.66665V5.14397L10.0352 7.0254C10.4976 7.70022 10.75 8.50376 10.75 9.33332C10.75 10.4163 10.3198 11.4549 9.55401 12.2207C8.78824 12.9864 7.74963 13.4167 6.66666 13.4167C5.58369 13.4167 4.54508 12.9864 3.77931 12.2207C3.01354 11.4549 2.58333 10.4163 2.58333 9.33332C2.58333 8.25035 3.01354 7.21174 3.77931 6.44597C4.54508 5.68019 5.58369 5.24998 6.66666 5.24998C7.49622 5.24998 8.29976 5.50242 8.97457 5.96474L10.856 4.08331H9.33333C8.91911 4.08331 8.58333 3.74753 8.58333 3.33331C8.58333 2.9191 8.91911 2.58331 9.33333 2.58331H12.6667C12.6667 2.58331 12.6667 2.58331 12.6667 2.58331C12.7698 2.58331 12.8681 2.60412 12.9575 2.64178C13.0385 2.67582 13.1148 2.72471 13.1821 2.78847C13.192 2.7979 13.2017 2.80759 13.2112 2.81754C13.2744 2.88421 13.323 2.95963 13.3571 3.03977ZM4.83997 7.50663C5.32444 7.02216 5.98152 6.74998 6.66666 6.74998C7.3518 6.74998 8.00889 7.02216 8.49335 7.50663C8.97782 7.99109 9.25 8.64818 9.25 9.33332C9.25 10.0185 8.97782 10.6755 8.49335 11.16C8.00889 11.6445 7.3518 11.9167 6.66666 11.9167C5.98152 11.9167 5.32444 11.6445 4.83997 11.16C4.3555 10.6755 4.08333 10.0185 4.08333 9.33332C4.08333 8.64818 4.3555 7.99109 4.83997 7.50663Z" fill="#0080FF"/>
</svg>
