<svg width="16" height="16" viewBox="0 0 16 16" fill="none" xmlns="http://www.w3.org/2000/svg">
    <path d="M6.64134 0.489111C7.42062 -0.163037 8.5794 -0.163037 9.35868 0.489112L9.61154 0.700715C10.0355 1.05547 10.5907 1.22926 11.1501 1.18229L11.4838 1.15427C12.5122 1.06791 13.4497 1.72402 13.6822 2.69286L13.7576 3.00722C13.8841 3.53425 14.2273 3.98925 14.7085 4.26799L14.9956 4.43426C15.8803 4.94667 16.2383 6.00829 15.8353 6.92376L15.7045 7.2208C15.4853 7.7188 15.4853 8.2812 15.7045 8.7792L15.8353 9.07624C16.2383 9.99171 15.8803 11.0533 14.9956 11.5657L14.7085 11.732C14.2273 12.0108 13.8841 12.4657 13.7576 12.9928L13.6822 13.3071C13.4497 14.276 12.5122 14.9321 11.4838 14.8457L11.1501 14.8177C10.5907 14.7707 10.0355 14.9445 9.61154 15.2993L9.35868 15.5109C8.5794 16.163 7.42062 16.163 6.64134 15.5109L6.38848 15.2993C5.96457 14.9445 5.40931 14.7707 4.84989 14.8177L4.51621 14.8457C3.48783 14.9321 2.55036 14.276 2.31783 13.3071L2.24239 12.9928C2.1159 12.4657 1.77273 12.0108 1.29148 11.732L1.00443 11.5657C0.119761 11.0533 -0.238321 9.99171 0.164728 9.07624L0.295506 8.7792C0.514757 8.2812 0.514757 7.7188 0.295505 7.2208L0.164728 6.92376C-0.238321 6.00829 0.119762 4.94667 1.00443 4.43426L1.29148 4.26799C1.77273 3.98925 2.1159 3.53425 2.24239 3.00722L2.31783 2.69286C2.55036 1.72402 3.48783 1.06791 4.51621 1.15427L4.84989 1.18229C5.40931 1.22926 5.96457 1.05547 6.38848 0.700715L6.64134 0.489111Z" fill="#3FB961"/>
    <path fill-rule="evenodd" clip-rule="evenodd" d="M11.197 5.46967C11.4899 5.76256 11.4899 6.23744 11.197 6.53033L7.19699 10.5303C6.90409 10.8232 6.42922 10.8232 6.13633 10.5303L4.13633 8.53033C3.84343 8.23744 3.84343 7.76256 4.13633 7.46967C4.42922 7.17678 4.90409 7.17678 5.19699 7.46967L6.66666 8.93934L10.1363 5.46967C10.4292 5.17678 10.9041 5.17678 11.197 5.46967Z" fill="white"/>
</svg>
